<?xml version="1.0" encoding="UTF-8"?>
<svg xmlns="http://www.w3.org/2000/svg" width="640" height="640">

			<g class="color1" transform="scale(20)">
				<path style="fill:#4B3F80;stroke:none" d="M14.8,29.8L1.2,16.2c-0.7-0.7-0.7-1.7,0-2.4L12.4,2.6c0,0,2.2,2.6,4.3,0.4c1,4.4,5.8,2.4,5.8,2.4
					l8.3,8.3c0.7,0.7,0.7,1.7,0,2.4L17.2,29.8C16.5,30.5,15.5,30.5,14.8,29.8z"/>
				<path style="fill:#FFFFFF;stroke:none" d="M8.1,9.3h5.2c1,0,1.8,0,2.3,0.1c0.5,0.1,0.9,0.3,1.3,0.5c0.4,0.3,0.7,0.6,1,1.1
					c0.3,0.4,0.4,1,0.4,1.5c0,0.6-0.2,1.2-0.5,1.7c-0.3,0.5-0.8,0.9-1.3,1.1c0.8,0.2,1.4,0.6,1.8,1.2s0.6,1.2,0.6,1.9
					c0,0.6-0.1,1.2-0.4,1.7c-0.3,0.6-0.6,1-1.1,1.3c-0.5,0.3-1.1,0.5-1.7,0.6c-0.4,0-1.5,0.1-3.1,0.1H8.1V9.3z M10.7,11.5v3h1.7
					c1,0,1.6,0,1.9,0c0.4-0.1,0.8-0.2,1-0.5c0.3-0.3,0.4-0.6,0.4-1c0-0.4-0.1-0.7-0.3-1c-0.2-0.2-0.5-0.4-1-0.5c-0.3,0-1,0-2.2,0H10.7z
					 M10.7,16.6V20h2.4c0.9,0,1.5,0,1.8-0.1c0.4-0.1,0.7-0.2,0.9-0.5c0.2-0.3,0.4-0.6,0.4-1.1c0-0.4-0.1-0.7-0.3-1s-0.5-0.5-0.8-0.6
					c-0.4-0.1-1.1-0.2-2.3-0.2H10.7z"/>
				<path style="fill:#FFFFFF;stroke:none" d="M19.7,22.2l1.7-8.1h-1.4l0.3-1.2h1.4l0.3-1.3c0.1-0.7,0.3-1.1,0.4-1.4c0.1-0.3,0.4-0.5,0.7-0.7
					s0.8-0.3,1.4-0.3c0.4,0,1,0.1,1.8,0.3l-0.3,1.4c-0.5-0.1-1-0.2-1.4-0.2c-0.3,0-0.5,0.1-0.7,0.2c-0.2,0.2-0.3,0.5-0.4,1.1l-0.2,1H25
					l-0.3,1.2h-1.8l-1.7,8.1H19.7z"/>
			</g>
</svg>