<svg version="1.1" xmlns="http://www.w3.org/2000/svg" xmlns:xlink="http://www.w3.org/1999/xlink" 
      preserveAspectRatio="none">
    <defs>
        <symbol id="decentralized" viewBox="0 0 256 256">
			<g class="color1">
				<circle stroke="none" cx="128" cy="219" r="19"/>
				<circle stroke="none" cx="219" cy="128" r="19"/>
				<circle stroke="none" cx="128" cy="37" r="19"/>
				<circle stroke="none" cx="37" cy="128" r="19"/>
				<circle stroke="none" cx="64" cy="192" r="19"/>
				<circle stroke="none" cx="192" cy="192" r="19"/>
				<circle stroke="none" cx="192" cy="63" r="19"/>
				<circle stroke="none" cx="63" cy="64" r="19"/>
				<circle fill="none" cx="128" cy="128" r="90"/>
			</g>
        </symbol>
		<symbol id="fair" viewBox="0 0 256 256">
			<g class="color1">
				<line x1="38" y1="62.5" x2="218" y2="62.5"/>
				<line x1="88" y1="222.5" x2="168" y2="222.5"/>
				<line x1="127.5" y1="32" x2="127.5" y2="222"/>
				<path stroke="none" d="M76,135c0,16-13.4,30-30,30s-30-14-30-30C29,135,62.7,135,76,135z"/>
				<path stroke="none" d="M240,135c0,16-13.4,30-30,30s-30-14-30-30C193,135,226.7,135,240,135z"/>
				<polyline fill="none" points="74,131.3 47,71.5 18,131.4 "/>
				<polyline fill="none" points="238,131.3 211,71.5 182,131.4 "/>
			</g>
        </symbol>
		<symbol id="open" viewBox="0 0 256 256">
			<g class="color1">
				<polygon style="fill:none;stroke-linecap:square" points="153,160 103,160 103,96 136,96 153,113"/>
				<polyline style="fill:none;stroke-linecap:square" points="152,114 136,114 136,98"/>
				<circle stroke="none" cx="128" cy="219" r="19"/>
				<circle stroke="none" cx="219" cy="128" r="19"/>
				<circle stroke="none" cx="128" cy="37" r="19"/>
				<circle stroke="none" cx="37" cy="128" r="19"/>
				<circle stroke="none" cx="64" cy="192" r="19"/>
				<circle stroke="none" cx="192" cy="192" r="19"/>
				<circle stroke="none" cx="192" cy="63" r="19"/>
				<circle stroke="none" cx="63" cy="64" r="19"/>
				<line x1="102" y1="128.5" x2="53" y2="128.5"/>
				<line x1="203" y1="128.5" x2="154" y2="128.5"/>
				<line x1="127.5" y1="48" x2="127.5" y2="95"/>
				<line x1="127.5" y1="161" x2="127.5" y2="207"/>
				<line x1="102.6" y1="154.3" x2="75.7" y2="181.2"/>
				<line x1="181.7" y1="75.2" x2="148.8" y2="108.1"/>
				<line x1="71.4" y1="71.6" x2="102.3" y2="102.5"/>
				<line x1="153" y1="153.2" x2="183.9" y2="184.1"/>
			</g>
        </symbol>
		<symbol id="cloud_01" viewBox="0 0 256 128">
			<g class="color1">
				<line style="stroke-width:72;stroke-linecap:round" x1="38" y1="86" x2="183" y2="86"/>
				<line style="stroke-width:64;stroke-linecap:round" x1="146" y1="42" x2="223" y2="42"/>
			</g>
        </symbol>
		<symbol id="cloud_02" viewBox="0 0 256 128">
			<g class="color1">
				<line style="stroke-width:72;stroke-linecap:round" x1="45" y1="90" x2="210" y2="90"/>
				<line style="stroke-width:72;stroke-linecap:round" x1="76" y1="38" x2="153" y2="38"/>
			</g>
        </symbol>
		<symbol id="cloud_03" viewBox="0 0 256 128">
			<g class="color1">
				<line style="stroke-width:72;stroke-linecap:round" x1="89" y1="86" x2="218" y2="86"/>
				<line style="stroke-width:72;stroke-linecap:round" x1="40" y1="44" x2="127" y2="44"/>
			</g>
        </symbol>
		<symbol id="cloud_04" viewBox="0 0 256 256">
			<g class="color1">
				<line style="stroke-width:128;stroke-linecap:round" x1="66" y1="173" x2="191" y2="173"/>
				<line style="stroke-width:114;stroke-linecap:round" x1="97" y1="77" x2="184" y2="77"/>
			</g>
        </symbol>
		<symbol id="cloud_05" viewBox="0 0 256 256">
		<g class="color1">
				<line style="stroke-width:144;stroke-linecap:round" x1="73" y1="171" x2="151" y2="171"/>
				<line style="stroke-width:128;stroke-linecap:round" x1="84" y1="74" x2="191" y2="74"/>
			</g>
        </symbol>
		<symbol id="cloud_06" viewBox="0 0 256 256">
		<g class="color1">
				<line style="stroke-width:128;stroke-linecap:round" x1="85" y1="172" x2="180" y2="172"/>
				<line style="stroke-width:114;stroke-linecap:round" x1="58" y1="76" x2="145" y2="76"/>
				<line style="stroke-width:114;stroke-linecap:round" x1="112" y1="106" x2="199" y2="106"/>
			</g>
        </symbol>
		<symbol id="cloud_07" viewBox="0 0 256 160">
		<g class="color1">
				<line style="stroke-width:88;stroke-linecap:round" x1="45" y1="107" x2="170" y2="107"/>
				<line style="stroke-width:80;stroke-linecap:round" x1="87" y1="49" x2="174" y2="49"/>
				<line style="stroke-width:72;stroke-linecap:round" x1="132" y1="82" x2="219" y2="82"/>
			</g>
        </symbol>
		<symbol id="cloud_08" viewBox="0 0 256 160">
		<g class="color1">
				<line style="stroke-width:72;stroke-linecap:round" x1="94" y1="113" x2="219" y2="113"/>
				<line style="stroke-width:96;stroke-linecap:round" x1="121" y1="60" x2="188" y2="60"/>
				<line style="stroke-width:72;stroke-linecap:round" x1="37" y1="75" x2="106" y2="75"/>
			</g>
        </symbol>
		<symbol id="cloud_09" viewBox="0 0 256 160">
		<g class="color1">
				<line style="stroke-width:88;stroke-linecap:round" x1="45" y1="99" x2="170" y2="99"/>
				<line style="stroke-width:80;stroke-linecap:round" x1="87" y1="58" x2="174" y2="58"/>
				<line style="stroke-width:64;stroke-linecap:round" x1="136" y1="90" x2="223" y2="90"/>
			</g>
        </symbol>
		<symbol id="cloud_10" viewBox="0 0 256 96">
		<g class="color1">
				<line style="stroke-width:32;stroke-linecap:round" x1="127" y1="20" x2="194" y2="20"/>
				<line style="stroke-width:72;stroke-linecap:round" x1="37" y1="56" x2="219" y2="56"/>
			</g>
        </symbol>
		<symbol id="logo" viewBox="0 0 64 64">
			<g class="color1">
				<path style="fill:#4B3F80;stroke:#FFFFFF;stroke-width:2" d="M29.9,58.7L3.2,32c-1.3-1.3-1.3-3.4,0-4.7
					L25.1,5.3c0,0,4.3,5.1,8.4,0.9c2,8.7,11.4,4.7,11.4,4.7l16.3,16.3c1.3,1.3,1.3,3.4,0,4.7L34.6,58.7C33.3,60,31.2,60,29.9,58.7z"/>
				<path style="fill:#FFFFFF;stroke:none" d="M11.7,22.6h3.4c0.7,0,1.2,0,1.5,0.1c0.3,0.1,0.6,0.2,0.9,0.4c0.3,0.2,0.5,0.4,0.7,0.7
					c0.2,0.3,0.3,0.6,0.3,1c0,0.4-0.1,0.8-0.3,1.1c-0.2,0.3-0.5,0.6-0.9,0.8c0.5,0.2,0.9,0.4,1.2,0.8c0.3,0.4,0.4,0.8,0.4,1.3
					c0,0.4-0.1,0.8-0.3,1.1c-0.2,0.4-0.4,0.7-0.7,0.9c-0.3,0.2-0.7,0.4-1.2,0.4c-0.3,0-1,0.1-2.1,0.1h-2.9V22.6z M13.4,24v2h1.1
					c0.7,0,1.1,0,1.3,0c0.3,0,0.5-0.1,0.7-0.3c0.2-0.2,0.3-0.4,0.3-0.7c0-0.3-0.1-0.5-0.2-0.6c-0.1-0.2-0.4-0.3-0.7-0.3
					c-0.2,0-0.7,0-1.5,0H13.4z M13.4,27.4v2.3H15c0.6,0,1,0,1.2-0.1c0.3,0,0.5-0.2,0.6-0.3c0.2-0.2,0.2-0.4,0.2-0.7
					c0-0.3-0.1-0.5-0.2-0.7c-0.1-0.2-0.3-0.3-0.5-0.4c-0.2-0.1-0.7-0.1-1.5-0.1H13.4z"/>
				<path style="fill:#FFFFFF;stroke:none" d="M20.4,31.1v-8.5h1.7v7h4.3v1.4H20.4z"/>
				<path style="fill:#FFFFFF;stroke:none" d="M27.3,26.9c0-0.9,0.1-1.6,0.4-2.2c0.2-0.4,0.5-0.8,0.8-1.2c0.3-0.3,0.7-0.6,1.1-0.8
					c0.5-0.2,1.1-0.3,1.8-0.3c1.3,0,2.3,0.4,3,1.2c0.8,0.8,1.1,1.9,1.1,3.3c0,1.4-0.4,2.5-1.1,3.2c-0.8,0.8-1.8,1.2-3,1.2
					c-1.3,0-2.3-0.4-3-1.2C27.7,29.3,27.3,28.2,27.3,26.9z M29.1,26.8c0,1,0.2,1.7,0.7,2.2c0.4,0.5,1,0.8,1.7,0.8
					c0.7,0,1.3-0.2,1.7-0.7c0.4-0.5,0.7-1.2,0.7-2.2c0-1-0.2-1.7-0.6-2.2c-0.4-0.5-1-0.7-1.7-0.7s-1.3,0.2-1.7,0.7
					C29.3,25.1,29.1,25.8,29.1,26.8z"/>
				<path style="fill:#FFFFFF;stroke:none" d="M42.4,28l1.7,0.5c-0.3,0.9-0.7,1.6-1.3,2.1c-0.6,0.5-1.4,0.7-2.3,0.7c-1.1,0-2.1-0.4-2.8-1.2
					c-0.7-0.8-1.1-1.8-1.1-3.2c0-1.4,0.4-2.5,1.1-3.3c0.7-0.8,1.7-1.2,2.9-1.2c1,0,1.9,0.3,2.6,0.9c0.4,0.4,0.7,0.9,0.9,1.6l-1.7,0.4
					c-0.1-0.4-0.3-0.8-0.6-1.1c-0.3-0.3-0.7-0.4-1.2-0.4c-0.6,0-1.1,0.2-1.5,0.7c-0.4,0.5-0.6,1.2-0.6,2.2c0,1.1,0.2,1.9,0.6,2.3
					s0.9,0.7,1.5,0.7c0.5,0,0.9-0.1,1.2-0.4C42,29.1,42.3,28.6,42.4,28z"/>
				<path style="fill:#FFFFFF;stroke:none" d="M45.6,31.1v-8.6h1.7v3.8l3.5-3.8h2.3l-3.2,3.3l3.4,5.2h-2.2l-2.4-4l-1.4,1.4v2.6H45.6z"/>
				<path style="fill:#FFFFFF;stroke:none" d="M17.4,43.1l1.1-5.4h-0.9l0.2-0.8h0.9l0.2-0.9c0.1-0.4,0.2-0.8,0.3-1c0.1-0.2,0.3-0.4,0.5-0.5
					c0.2-0.1,0.5-0.2,0.9-0.2c0.3,0,0.7,0.1,1.2,0.2l-0.2,0.9c-0.4-0.1-0.7-0.1-0.9-0.1c-0.2,0-0.4,0.1-0.5,0.2
					c-0.1,0.1-0.2,0.3-0.3,0.7l-0.1,0.7h1.2l-0.2,0.8h-1.2l-1.1,5.4H17.4z"/>
				<path style="fill:#FFFFFF;stroke:none" d="M23.2,40.7c0-1.2,0.4-2.2,1.1-3c0.6-0.7,1.4-1,2.3-1c0.7,0,1.3,0.2,1.8,0.7c0.5,0.5,0.7,1.1,0.7,1.9
					c0,0.7-0.1,1.4-0.4,2c-0.3,0.6-0.7,1.1-1.2,1.4c-0.5,0.3-1.1,0.5-1.7,0.5c-0.5,0-0.9-0.1-1.3-0.3c-0.4-0.2-0.7-0.5-0.9-0.9
					C23.3,41.7,23.2,41.2,23.2,40.7z M24.2,40.6c0,0.6,0.1,1,0.4,1.3c0.3,0.3,0.6,0.5,1.1,0.5c0.2,0,0.4,0,0.7-0.1
					c0.2-0.1,0.4-0.2,0.6-0.4c0.2-0.2,0.4-0.4,0.5-0.6c0.1-0.2,0.2-0.5,0.3-0.8c0.1-0.4,0.2-0.8,0.2-1.1c0-0.6-0.1-1-0.4-1.3
					c-0.3-0.3-0.6-0.5-1.1-0.5c-0.3,0-0.6,0.1-0.9,0.2c-0.3,0.2-0.5,0.4-0.7,0.7s-0.4,0.7-0.5,1.1C24.3,39.9,24.2,40.3,24.2,40.6z"/>
				<path style="fill:#FFFFFF;stroke:none" d="M32.2,40.7c0-1.2,0.4-2.2,1.1-3c0.6-0.7,1.4-1,2.3-1c0.7,0,1.3,0.2,1.8,0.7s0.7,1.1,0.7,1.9
					c0,0.7-0.1,1.4-0.4,2c-0.3,0.6-0.7,1.1-1.2,1.4c-0.5,0.3-1.1,0.5-1.7,0.5c-0.5,0-0.9-0.1-1.3-0.3c-0.4-0.2-0.7-0.5-0.9-0.9
					C32.3,41.7,32.2,41.2,32.2,40.7z M33.3,40.6c0,0.6,0.1,1,0.4,1.3c0.3,0.3,0.6,0.5,1.1,0.5c0.2,0,0.4,0,0.7-0.1
					c0.2-0.1,0.4-0.2,0.6-0.4s0.4-0.4,0.5-0.6c0.1-0.2,0.2-0.5,0.3-0.8C37,40,37,39.7,37,39.3c0-0.6-0.1-1-0.4-1.3
					c-0.3-0.3-0.6-0.5-1.1-0.5c-0.3,0-0.6,0.1-0.9,0.2c-0.3,0.2-0.5,0.4-0.7,0.7s-0.4,0.7-0.5,1.1C33.3,39.9,33.3,40.3,33.3,40.6z"/>
				<path style="fill:#FFFFFF;stroke:none" d="M45.2,42.2c-0.6,0.7-1.2,1-1.9,1c-0.6,0-1.1-0.2-1.5-0.7c-0.4-0.4-0.6-1.1-0.6-1.9
					c0-0.8,0.2-1.4,0.5-2.1c0.3-0.6,0.7-1.1,1.2-1.4c0.5-0.3,0.9-0.5,1.4-0.5c0.8,0,1.4,0.4,1.7,1.1l0.7-3.3h1.1L46,43.1h-1L45.2,42.2z
					 M42.3,40.5c0,0.4,0,0.8,0.1,1s0.2,0.5,0.4,0.6c0.2,0.2,0.5,0.2,0.7,0.2c0.5,0,0.9-0.2,1.3-0.7c0.5-0.7,0.8-1.5,0.8-2.5
					c0-0.5-0.1-0.9-0.4-1.2s-0.6-0.4-1-0.4c-0.3,0-0.5,0.1-0.7,0.2s-0.4,0.3-0.6,0.6c-0.2,0.3-0.4,0.6-0.5,1S42.3,40.2,42.3,40.5z"/>
			</g>
        </symbol>
		<symbol id="logo_small" viewBox="0 0 32 32">
			<g class="color1">
				<path style="fill:#4B3F80;stroke:none" d="M14.8,29.8L1.2,16.2c-0.7-0.7-0.7-1.7,0-2.4L12.4,2.6c0,0,2.2,2.6,4.3,0.4c1,4.4,5.8,2.4,5.8,2.4
					l8.3,8.3c0.7,0.7,0.7,1.7,0,2.4L17.2,29.8C16.5,30.5,15.5,30.5,14.8,29.8z"/>
				<path style="fill:#FFFFFF;stroke:none" d="M8.1,9.3h5.2c1,0,1.8,0,2.3,0.1c0.5,0.1,0.9,0.3,1.3,0.5c0.4,0.3,0.7,0.6,1,1.1
					c0.3,0.4,0.4,1,0.4,1.5c0,0.6-0.2,1.2-0.5,1.7c-0.3,0.5-0.8,0.9-1.3,1.1c0.8,0.2,1.4,0.6,1.8,1.2s0.6,1.2,0.6,1.9
					c0,0.6-0.1,1.2-0.4,1.7c-0.3,0.6-0.6,1-1.1,1.3c-0.5,0.3-1.1,0.5-1.7,0.6c-0.4,0-1.5,0.1-3.1,0.1H8.1V9.3z M10.7,11.5v3h1.7
					c1,0,1.6,0,1.9,0c0.4-0.1,0.8-0.2,1-0.5c0.3-0.3,0.4-0.6,0.4-1c0-0.4-0.1-0.7-0.3-1c-0.2-0.2-0.5-0.4-1-0.5c-0.3,0-1,0-2.2,0H10.7z
					 M10.7,16.6V20h2.4c0.9,0,1.5,0,1.8-0.1c0.4-0.1,0.7-0.2,0.9-0.5c0.2-0.3,0.4-0.6,0.4-1.1c0-0.4-0.1-0.7-0.3-1s-0.5-0.5-0.8-0.6
					c-0.4-0.1-1.1-0.2-2.3-0.2H10.7z"/>
				<path style="fill:#FFFFFF;stroke:none" d="M19.7,22.2l1.7-8.1h-1.4l0.3-1.2h1.4l0.3-1.3c0.1-0.7,0.3-1.1,0.4-1.4c0.1-0.3,0.4-0.5,0.7-0.7
					s0.8-0.3,1.4-0.3c0.4,0,1,0.1,1.8,0.3l-0.3,1.4c-0.5-0.1-1-0.2-1.4-0.2c-0.3,0-0.5,0.1-0.7,0.2c-0.2,0.2-0.3,0.5-0.4,1.1l-0.2,1H25
					l-0.3,1.2h-1.8l-1.7,8.1H19.7z"/>
			</g>
        </symbol>
    </defs>
</svg>
