<?xml version="1.0" encoding="UTF-8"?>
<!DOCTYPE svg PUBLIC "-//W3C//DTD SVG 1.1//EN" "http://www.w3.org/Graphics/SVG/1.1/DTD/svg11.dtd">
<!-- Creator: CorelDRAW X6 -->
<svg xmlns="http://www.w3.org/2000/svg" xml:space="preserve" width="1.38542in" height="0.336803in" version="1.1" style="shape-rendering:geometricPrecision; text-rendering:geometricPrecision; image-rendering:optimizeQuality; fill-rule:evenodd; clip-rule:evenodd"
viewBox="0 0 1385 337"
 xmlns:xlink="http://www.w3.org/1999/xlink">
 <defs>
  <style type="text/css">
   <![CDATA[
    .fil0 {fill:#111C28;fill-rule:nonzero}
   ]]>
  </style>
 </defs>
 <g id="__x0023_Layer_x0020_1">
  <metadata id="CorelCorpID_0Corel-Layer"/>
  <g id="_154748176">
   <g>
    <path class="fil0" d="M485 319l-59 -102 -3 0 -45 0 0 102 -59 0 0 -297 104 0c73,0 117,40 117,99 0,41 -20,71 -56,85l68 113 -66 0zm-108 -154l0 0 53 0c33,0 48,-21 48,-44 0,-23 -16,-44 -48,-44l-53 0 0 88zm201 -143l0 0 59 0 0 297 -59 0 0 -297zm333 266l0 0c-16,18 -51,37 -90,37 -85,0 -154,-65 -154,-155 0,-90 69,-155 154,-155 59,0 108,31 135,79l-60 16c-16,-22 -45,-36 -75,-36 -56,0 -93,40 -93,96 0,59 41,97 96,97 51,0 78,-28 87,-51l0 -13 -82 0 0 -48 133 0 0 164 -51 0c0,-25 0,-31 0,-31l0 0zm93 -266l0 0 59 0 0 297 -59 0 0 -297zm364 0l0 0 0 297 -56 0 -85 -115c-27,-37 -60,-83 -60,-83l0 0c0,0 0,43 0,102l0 96 -59 0 0 -297 56 0 86 116c20,27 58,80 58,80l0 0c0,0 0,-48 0,-99l0 -97 59 0zm-1091 69l0 0 -48 48c2,10 3,20 3,31 0,61 -29,97 -77,97 -20,0 -37,-6 -50,-19l167 -167c-4,-8 -10,-15 -15,-22 -2,-3 -5,-6 -8,-8l0 0c0,0 -1,-1 -1,-1 -1,-1 -2,-2 -2,-2l0 0c-24,-23 -55,-35 -91,-35 -41,0 -76,16 -102,46 -24,28 -37,67 -37,110 0,28 6,55 17,78l48 -48c-2,-9 -3,-19 -3,-30 0,-28 6,-51 17,-67 13,-20 34,-30 59,-30 20,0 36,6 49,18l-167 167c5,8 10,16 16,23 1,1 2,3 4,4l0 0c0,0 0,0 0,0 1,2 3,3 4,5 0,0 0,0 1,1 0,0 1,1 1,1l0 0c24,23 56,35 92,35 41,0 77,-16 102,-46 24,-28 37,-67 37,-110 0,-29 -6,-56 -17,-80z"/>
   </g>
  </g>
 </g>
</svg>
